# xmcd
#
# Track frame offsets:
# 150
# 15346
# 29729
# 47397
# 61757
# 78162
# 94220
# 115741
# 134235
# 150287
#
# Disc length: 2243 seconds
#
# Revision: 0
# Processed by: cddbd v1.4PL0 Copyright (c) Steve Scherf et al.
# Submitted via: Axialis_AX_CDPlayer 2.6
#
DISCID=7108c10a
DTITLE=Gary Primich - Dog House Music
DYEAR=1900
DGENRE=
TTITLE0=Mr. Lucky
TTITLE1=Dog House
TTITLE2=That's What Love Was Made For
TTITLE3=Angeline
TTITLE4=Brown Derby Liquor
TTITLE5=Elizabeth Lee
TTITLE6=Hoodoo Preacher
TTITLE7=I Know It's Wrong
TTITLE8=I Can't Stand You When You're Drinking
TTITLE9=Texas Love Kit
EXTD=
EXTT0=
EXTT1=
EXTT2=
EXTT3=
EXTT4=
EXTT5=
EXTT6=
EXTT7=
EXTT8=
EXTT9=
PLAYORDER=
